<svg width="87" height="87" fill="none" xmlns="http://www.w3.org/2000/svg"><g clip-path="url(#a)" fill="#333C4F"><path d="M79.345 27.065c.435-.29.58-.87.435-1.306v-.145a20.535 20.535 0 0 0-7.836-12.335c-.436-.29-.871-.436-1.451-.146-5.08 1.742-9.143 1.742-12.336-.145-5.079-3.047-5.95-10.303-5.95-10.303 0-.58-.435-1.016-1.015-1.161-4.934-2.032-10.45-2.032-15.528 0-.436.145-.871.58-.871 1.16 0 0-.87 7.112-5.95 10.304-3.193 2.032-7.401 2.032-12.48.146-.436-.29-.871-.146-1.307.145A20.536 20.536 0 0 0 7.22 25.614v.145c0 .435.145 1.016.435 1.306 4.354 4.354 6.82 10.884 6.82 17.85 0 6.966-2.466 13.496-6.82 17.85-.435.29-.58.87-.435 1.306v.145a20.535 20.535 0 0 0 7.836 12.335c.436.29.871.436 1.306.29.871-.29 19.156-6.53 25.832 9.288.145.58.725.87 1.306.87.58 0 1.161-.29 1.306-1.015 6.82-15.673 25.106-9.578 25.832-9.288.435.29.87.145 1.306-.145a20.536 20.536 0 0 0 7.836-12.335v-.145c0-.435-.145-1.016-.435-1.306-8.998-8.998-8.998-26.703 0-35.7ZM70.783 73.65C67.01 72.633 51.19 69.005 43.5 82.21c-4.644-7.836-12.19-9.723-18.285-9.723-4.064 0-7.546.87-8.998 1.306-2.902-2.467-5.08-5.805-5.95-9.578 4.499-4.789 7.111-11.755 7.111-19.3 0-7.547-2.612-14.513-7.11-19.447.87-3.773 3.047-7.111 5.95-9.578 5.659 1.886 10.448 1.741 14.221-.58 5.08-3.194 6.676-9.289 7.111-11.61 3.918-1.307 7.982-1.307 11.9 0 .435 2.321 2.032 8.417 7.11 11.61 3.774 2.321 8.563 2.466 14.223.58 3.047 2.467 5.079 5.804 5.95 9.578-9.433 10.158-9.433 28.443 0 38.602-.871 3.773-2.903 7.11-5.95 9.578Z"/><path d="M45.387 71.762c-.58.58-1.306 1.016-1.887 1.597-.58-.58-1.306-1.161-1.886-1.597-.726-.435-1.597-.29-2.032.29-.435.581-.29 1.597.29 2.032 1.016.58 1.742 1.306 2.612 2.177.29.29.58.436 1.016.436.435 0 .726-.145 1.016-.436l2.612-2.177c.58-.435.726-1.45.29-2.031-.435-.581-1.451-.726-2.031-.29ZM34.793 68.28c-1.887-.726-4.063-1.162-6.24-1.307-.871 0-1.451.58-1.597 1.306-.145.871.58 1.452 1.306 1.597 2.032.145 3.919.58 5.66 1.16h.436c.58 0 1.16-.435 1.306-.87.29-.87-.146-1.596-.871-1.887ZM21.006 66.973c-1.015.145-2.032.29-2.902.436-.58-.726-1.016-1.306-1.306-2.032.58-.726 1.16-1.596 1.741-2.467.29-.726.145-1.597-.58-2.032-.726-.29-1.597-.145-2.032.58-.58 1.016-1.161 2.032-1.886 2.903-.29.435-.29 1.016-.146 1.451.58 1.597 1.452 2.903 2.613 4.209.145.29.58.435 1.015.435h.29c1.162-.29 2.323-.435 3.484-.58.87-.145 1.45-.871 1.306-1.597-.146-.87-.726-1.45-1.597-1.306ZM21.587 34.466a1.288 1.288 0 0 0-1.742-1.016 1.288 1.288 0 0 0-1.015 1.742c.58 1.886.87 3.918 1.16 5.95.146.726.726 1.306 1.452 1.306 0 0 .145 0 .145.145.87-.145 1.45-.87 1.306-1.596a51.95 51.95 0 0 0-1.306-6.53ZM21.442 47.382c-.871-.145-1.451.58-1.597 1.306-.145 2.177-.58 4.209-1.16 6.095-.146.726.29 1.451 1.015 1.742h.435c.726 0 1.306-.436 1.306-1.016.58-2.032 1.016-4.354 1.307-6.53 0-.871-.58-1.452-1.306-1.597ZM18.394 26.92a14.37 14.37 0 0 0-1.596-2.467c.29-.726.725-1.306 1.16-1.887 1.017.145 2.033.29 2.903.436.726 0 1.451-.58 1.597-1.306 0-.726-.58-1.452-1.451-1.597-1.016-.145-2.177-.29-3.338-.58-.58-.145-1.161 0-1.451.435-1.016 1.161-1.887 2.612-2.468 4.063-.29.436-.145 1.016.145 1.451.726.871 1.306 1.887 1.887 2.903.29.435.87.726 1.306.726.29 0 .58 0 .726-.145.725-.436 1.015-1.307.58-2.032ZM33.922 16.326c-1.596 1.306-3.338 2.467-5.37 3.048-.725.29-1.16 1.16-.87 1.886.29.58.87 1.016 1.451 1.016h.29c2.322-.87 4.5-2.032 6.386-3.773.58-.58.726-1.451.145-2.032-.58-.58-1.451-.725-2.032-.145ZM47.128 7.038c-.145-.58-.58-.87-1.16-1.015-1.597-.29-3.339-.29-5.08 0-.58.145-1.016.435-1.161 1.015-.29 1.161-.726 2.177-1.161 3.193-.29.726 0 1.596.725 1.886.145.146.436.146.58.146.581 0 1.017-.29 1.017-.871.435-.87.87-1.887 1.16-2.757a7.048 7.048 0 0 1 2.468 0c.435 1.015.725 1.886 1.16 2.757.291.726 1.162 1.016 1.887.726.726-.29 1.016-1.162.726-1.887-.435-1.016-.87-2.032-1.16-3.193ZM57.867 22.276c.58 0 1.161-.435 1.306-1.016.29-.87-.145-1.596-.87-1.886-2.032-.58-3.774-1.597-5.37-3.048a1.554 1.554 0 0 0-2.032.145 1.554 1.554 0 0 0 .145 2.032c1.887 1.741 4.064 3.048 6.386 3.773h.435ZM66.139 23.002c1.016 0 1.886-.29 2.903-.436.435.58.87 1.161 1.16 1.887a14.388 14.388 0 0 0-1.596 2.467c-.29.725-.145 1.596.58 2.032.29.145.436.145.726.145.436 0 .87-.29 1.161-.726.58-1.016 1.161-2.032 1.887-2.902.29-.436.29-1.016.145-1.452-.58-1.45-1.451-2.902-2.467-4.063-.436-.435-.871-.58-1.452-.435-1.16.29-2.176.435-3.337.58-.871.145-1.452.87-1.306 1.596.145.871.725 1.452 1.596 1.307ZM65.413 42.448h.145c.726 0 1.306-.435 1.451-1.306.146-2.177.581-4.209 1.162-6.095.145-.726-.29-1.597-1.016-1.742-.726-.145-1.451.29-1.742 1.016-.58 2.032-1.016 4.354-1.306 6.53 0 .726.58 1.452 1.306 1.597ZM66.865 56.525h.29a1.288 1.288 0 0 0 1.016-1.742c-.58-2.032-.871-4.063-1.162-6.095-.144-.87-.725-1.451-1.596-1.306-.87.145-1.451.87-1.306 1.596a52.02 52.02 0 0 0 1.306 6.53c.29.581.871 1.017 1.452 1.017ZM68.606 62.91c.435.87 1.016 1.741 1.596 2.467-.435.726-.87 1.451-1.306 2.032-1.016-.145-1.886-.29-2.902-.436-.871 0-1.451.58-1.597 1.306 0 .726.58 1.452 1.306 1.597 1.162.145 2.322.29 3.483.58h.29c.436 0 .871-.145 1.162-.435 1.16-1.306 2.031-2.612 2.612-4.209.29-.435.145-1.015-.145-1.45-.726-.871-1.306-1.887-1.887-2.903-.435-.726-1.306-1.016-2.032-.58-.725.435-1.016 1.305-.58 2.03ZM58.447 66.828c-2.176.29-4.208.726-6.24 1.306-.725.29-1.16 1.161-.87 1.887.29.58.87 1.016 1.45 1.016.146 0 .291-.145.291-.145 1.742-.58 3.628-1.016 5.66-1.161.87-.145 1.451-.871 1.306-1.597-.145-.87-.726-1.306-1.596-1.306Z"/></g><defs><clipPath id="a"><path fill="#fff" d="M0 0h87v87H0z"/></clipPath></defs></svg>