<svg width="184" height="74" fill="none" xmlns="http://www.w3.org/2000/svg"><g clip-path="url(#a)"><path d="M35.71 35.6V15.884h9.854V35.4c0 5.066 2.55 7.476 6.45 7.476 3.9 0 6.452-2.307 6.452-7.225V15.884h9.852v19.464c0 11.337-6.45 16.307-16.403 16.307-9.952 0-16.204-5.066-16.204-16.055ZM89.075 15.884h10.251l8.353 13.596 8.353-13.596h10.254v35.12h-9.654V30.837l-8.953 13.747h-.199l-8.902-13.647v20.067h-9.503v-35.12ZM146.288 33.544v-.1c0-10.084 8.102-18.263 18.906-18.263 10.803 0 18.806 8.076 18.806 18.163v.1c0 10.083-8.102 18.262-18.906 18.262-10.804 0-18.806-8.076-18.806-18.162Zm27.808 0v-.1c0-5.066-3.65-9.48-9.002-9.48s-8.854 4.314-8.854 9.38v.1c0 5.066 3.653 9.48 8.954 9.48 5.3 0 8.902-4.314 8.902-9.38Z" fill="#333C4F"/><path d="M0 61.429h3.608l2.149 7.15 2.377-7.186h2.94l2.377 7.187 2.15-7.151h3.536L15.02 73.877h-2.975L9.56 66.763l-2.464 7.115H4.122L0 61.43ZM25.839 61.429h3.434V73.79h-3.434V61.43ZM36.806 61.429h3.187l5.07 6.532v-6.532h3.38V73.79H45.45l-5.262-6.78v6.78h-3.38V61.43h-.003ZM58.915 64.429h-3.697v-3h10.807v3h-3.698v9.358h-3.415V64.43h.003ZM72.8 61.429h9.91v2.913h-6.53v1.872h5.914v2.7H76.18v1.96h6.618v2.913H72.8V61.425v.004ZM89.823 61.429h5.828c1.883 0 3.187.493 4.013 1.34.722.706 1.092 1.66 1.092 2.878v.035c0 1.889-1.002 3.142-2.535 3.797l2.94 4.308h-3.942l-2.483-3.744h-1.498v3.744h-3.415V61.425v.004Zm5.668 5.933c1.162 0 1.83-.564 1.83-1.467v-.035c0-.97-.703-1.466-1.847-1.466h-2.236v2.968h2.252ZM117.914 61.429h9.856v3h-6.441v2.101h5.828v2.842h-5.828v4.415h-3.415V61.425v.004ZM134.604 61.429h9.91v2.913h-6.531v1.872h5.914v2.7h-5.914v1.96h6.618v2.913h-9.997V61.425v.004ZM150.689 71.95l1.902-2.278c1.214.97 2.57 1.483 3.996 1.483.916 0 1.407-.32 1.407-.848v-.035c0-.513-.405-.797-2.078-1.183-2.622-.6-4.649-1.34-4.649-3.883v-.036c0-2.294 1.812-3.954 4.771-3.954 2.094 0 3.733.564 5.069 1.643l-1.706 2.42c-1.127-.795-2.358-1.217-3.45-1.217-.829 0-1.234.354-1.234.796v.035c0 .564.421.812 2.13 1.202 2.834.619 4.594 1.537 4.594 3.848v.035c0 2.527-1.988 4.025-4.982 4.025-2.182 0-4.26-.69-5.773-2.05l.003-.003ZM171.037 64.429h-3.697v-3h10.807v3h-3.698v9.358h-3.415V64.43h.003Z" fill="#479CFC"/><path d="M10.145 22.96V9.749H184V0H.427v51.004h26.658v-8.53H10.13V22.96h.016Z" fill="#333C4F"/></g><defs><clipPath id="a"><path fill="#fff" d="M0 0h184v74H0z"/></clipPath></defs></svg>