<svg width="92" height="92" fill="none" xmlns="http://www.w3.org/2000/svg"><g clip-path="url(#a)"><path d="M91.532 23.746c-.623-.624-1.559-.624-2.182 0-5.382 5.091-9.814 5.701-14.436 1.708l1.497-1.24c4.053-4.21 4.053-10.913 0-14.966-4.054-4.054-10.757-4.054-14.966.156l-1.2 1.45-1.607-1.606c-4.209-4.054-10.912-4.054-14.965 0-2.027 2.026-3.118 4.677-3.118 7.482 0 2.807 1.09 5.457 3.117 7.483l3.08 2.957L24.75 53.774l-5.241-5.24c-4.21-4.054-10.913-4.054-14.966 0-2.027 2.026-3.118 4.676-3.118 7.482s1.09 5.457 3.118 7.483l6.68 6.63L.334 83.298c-.467.623-.467 1.403.156 2.026.312.312.624.468 1.092.468.312 0 .78-.156.935-.312l13.172-10.92 9.277 9.206c.312.311.624.467 1.091.467.312 0 .78-.156 1.092-.312.623-.623.623-1.559 0-2.182l-9.12-9.12L37.712 56.3l4.713 4.861a10.156 10.156 0 0 0 7.172 2.962c2.962 0 5.768-1.247 7.95-2.962 4.054-4.209 4.054-10.912 0-14.965l-3.544-3.403 18.51-15.346c2.727 2.48 5.573 3.783 8.419 3.783 3.43 0 7.015-1.715 10.6-5.3.624-.624.624-1.56 0-2.183ZM45.855 22.03a7.424 7.424 0 0 1-2.183-5.3c0-2.027.78-3.898 2.183-5.3 2.962-2.963 7.639-2.963 10.6 0l1.814 1.812-9.545 11.542-2.87-2.754ZM6.725 61.317a7.424 7.424 0 0 1-2.182-5.3c0-2.027.779-3.898 2.182-5.301 2.962-2.962 7.639-2.962 10.6 0l5.449 5.448-9.598 11.604-6.451-6.451Zm6.548 11.224.172-.208.036.036-.208.172Zm2.116-2.56 45.078-54.54 3.862 3.862-1.481 1.48c-.624.624-.624 1.56 0 2.183.311.312.623.468 1.09.468.469 0 .78-.156 1.092-.468l5.145-5.144c.623-.624.623-1.56 0-2.183-.624-.623-1.56-.623-2.183 0l-1.48 1.481-4.07-4.068 1.34-1.622a7.424 7.424 0 0 1 5.301-2.182c2.027 0 3.742.78 5.145 2.182a7.424 7.424 0 0 1 2.182 5.3c0 2.027-.78 3.898-2.026 5.145L15.83 70.421l-.44-.44Zm39.976-21.448c2.806 2.962 2.806 7.64 0 10.445-2.806 2.339-7.64 2.962-10.601 0l-4.662-4.661 11.507-9.54 3.756 3.756Z" fill="#333C4F"/></g><defs><clipPath id="a"><path fill="#fff" d="M0 0h92v92H0z"/></clipPath></defs></svg>