<svg width="98" height="88" fill="none" xmlns="http://www.w3.org/2000/svg"><path d="M97.841 70.925c-.326-1.958-1.632-3.753-3.264-5.059L55.74 36.488v-8.48a4.388 4.388 0 0 0-4.406-4.406h-.652v-3.427c4.569-.815 8.159-4.732 8.159-9.627 0-5.385-4.406-9.791-9.791-9.791-5.385 0-9.79 4.406-9.79 9.79 0 .98.652 1.633 1.63 1.633.98 0 1.633-.653 1.633-1.632 0-3.59 2.937-6.527 6.527-6.527 3.59 0 6.527 2.937 6.527 6.527 0 3.59-2.937 6.527-6.527 6.527-.98 0-1.632.816-1.632 1.795v4.732h-.49a4.388 4.388 0 0 0-4.405 4.406v8.233L3.359 65.866c-1.795 1.306-2.937 3.1-3.264 5.059-.326 2.448.164 4.895 1.795 6.854 1.632 1.795 3.917 2.937 6.365 2.937h13.054c0 3.59 2.937 6.527 6.527 6.527 3.59 0 6.528-2.937 6.528-6.527h29.372c0 3.59 2.937 6.527 6.527 6.527 3.59 0 6.527-2.937 6.527-6.527h13.055a8.069 8.069 0 0 0 6.201-2.937c1.632-1.959 2.285-4.406 1.795-6.854ZM45.623 28.008c0-.652.49-1.142 1.142-1.142h1.513a1.8 1.8 0 0 0 .772.163c.261 0 .498-.06.706-.163h1.415c.653 0 1.142.49 1.142 1.142v5.875l-1.795-1.469c-.416-.333-.959-.495-1.521-.488a2.21 2.21 0 0 0-.474.046c-.385.069-.765.215-1.105.442l-1.795 1.469v-5.875ZM27.836 83.98a3.273 3.273 0 0 1-3.263-3.263v-9.791a3.273 3.273 0 0 1 3.263-3.264 3.273 3.273 0 0 1 3.264 3.264v9.791a3.274 3.274 0 0 1-3.264 3.263Zm35.9-13.054H34.364c0-3.59-2.938-6.527-6.528-6.527-3.59 0-6.527 2.937-6.527 6.527H13.15l35.9-27.251 35.9 27.251h-8.16c0-3.59-2.937-6.527-6.527-6.527-3.59 0-6.527 2.937-6.527 6.527Zm-29.372 6.527V74.19h29.372v3.263H34.364Zm35.9 6.527A3.273 3.273 0 0 1 67 80.716v-9.791a3.273 3.273 0 0 1 3.263-3.264 3.273 3.273 0 0 1 3.264 3.264v9.791a3.273 3.273 0 0 1-3.264 3.263Zm23.334-8.322c-.979 1.142-2.284 1.795-3.753 1.795H76.79V74.19h14.197l.816-2.448-41.611-31.494c-.653-.49-1.632-.49-2.285 0L7.765 70.762c-.653.49-.98 1.305-.653 2.121.327.816.98 1.306 1.795 1.306H21.31v3.263H8.255c-1.47 0-2.775-.653-3.754-1.795-.979-1.142-1.305-2.61-.979-4.08.163-1.142.816-2.284 1.958-3.1L44.244 39.15l4.886-3.575 43.489 32.902c.98.816 1.795 1.958 1.958 3.1.327 1.47 0 2.938-.979 4.08Z" fill="#333C4F"/></svg>