<svg width="276" height="96" fill="none" xmlns="http://www.w3.org/2000/svg"><path d="M235.232 56.453c.674.659 1.436 1.398 1.837 1.786-12.76 12.764-24.825 24.843-37.165 37.184a390.57 390.57 0 0 0-1.69-1.476c1.964-3.598 29.876-31.963 37.018-37.494ZM160.85 39.663l-2.15-1.652c.093-.47.05-.893.24-1.12 2.233-2.657 4.358-5.424 6.784-7.893 8.322-8.463 16.748-16.825 25.153-25.206 1.094-1.095 2.208-2.21 3.488-3.057.449-.298 1.641-.056 2.081.368.43.423.586 1.45.42 2.089-.186.684-.879 1.247-1.387 1.82-.518.58-1.104 1.103-1.651 1.654L160.85 39.663ZM38.518 59.542c-.22.32-.475.846-.867 1.24-11.012 11.037-22.04 22.06-33.061 33.09-1.288 1.29-2.53 2.808-4.34.089 1.917-3.028 4.078-5.832 7.242-8.227 3.576-2.709 6.277-6.57 9.376-9.914.926-1 1.771-2.18 2.904-2.86 1.872-1.123 3.03-2.778 4.43-4.352 3.301-3.708 6.967-7.11 10.681-10.414.94-.836 2.869-2.311 3.635 1.348ZM195.41 57.004c.635.737 1.124 1.31 1.583 1.852-2.687 3.93-27.189 28.841-36.264 36.87l-2.35-1.58c2.078-2.946 3.996-5.52 6.867-7.705 3.723-2.831 6.534-6.856 9.776-10.33.92-.985 1.963-1.856 2.973-2.752 1.146-1.016 2.359-1.96 3.471-3.01 1.5-1.418 2.924-2.914 4.399-4.361.693-.682 1.729-1.201 2.071-2.02 1.466-3.461 4.69-4.849 7.474-6.964ZM121.018 39.778c-.705-1.663-1.559-2.718-1.307-3.264.712-1.544 1.596-3.277 2.923-4.213 2.558-1.806 4.315-4.304 6.499-6.357 2.649-2.491 5.056-5.173 7.633-7.688 4.474-4.368 9.069-8.585 13.204-13.307 1.587-1.813 3.877-3.01 6.462-4.949.208 1.619.555 2.621.381 3.524-.128.658-.913 1.213-1.459 1.761-11.239 11.301-22.488 22.594-34.336 34.493ZM37.297.555l1.797 2.039c-12.572 12.32-24.866 24.37-37.63 36.88L0 37.836C12.443 25.398 24.499 13.346 37.297.555ZM156.309 56.897c1.519 2.025.587 3.203-.59 4.37-3.595 3.567-7.173 7.15-10.754 10.731-7.299 7.298-14.602 14.592-21.886 21.907-1.33 1.335-2.583 2.634-4.162.325 2.789-4.142 32.834-34.203 37.392-37.333ZM40.747 39.183c-.192-1.265-.577-2.289-.41-3.213.115-.641.975-1.159 1.526-1.709A43042.558 43042.558 0 0 1 74.525 1.637c.398-.396.906-.682 1.65-1.23l1.888 1.46-37.316 37.316ZM234.568.313c.84.7 1.416 1.178 1.631 1.362-12.261 12.23-24.463 24.405-37.203 37.107.039.05-.469-.657-.938-1.312 2.814-4.115 27.023-28.74 36.51-37.157ZM80.7 38.534 79.65 37.36c2.674-4.061 24.848-26.67 36.155-36.88.694.429 1.465.903 1.798 1.11L80.7 38.533ZM76.91 57.25c.156.13.731.615.963.811L40.699 95.223l-.813-.908C52.366 81.823 64.421 69.752 76.91 57.25ZM116.731 56.372c.097 1.66.435 2.748.135 3.616-.292.844-1.212 1.488-1.899 2.176a35678.686 35678.686 0 0 1-32.33 32.307c-.406.406-.915.709-1.87 1.436-.398-1.107-1.086-2.068-.94-2.877.152-.834 1.057-1.58 1.737-2.26a17386.028 17386.028 0 0 1 32.746-32.717c.506-.506 1.188-.835 2.421-1.68ZM239.521 39.27c-.547-.554-1.094-1.098-1.583-1.585 2.277-3.87 31.498-33.33 36.608-37.004 1.632.884 1.319 2.128.508 3.354-.42.64-1.055 1.143-1.602 1.695a91235.724 91235.724 0 0 1-32.329 32.285c-.4.403-.898.71-1.602 1.256ZM275.172 55.827c.166 2.135.449 3.084.234 3.905-.176.678-.889 1.248-1.436 1.796-11.304 11.325-22.617 22.641-33.911 33.946-1.739-.975-2.775-1.953-1.163-3.652.811-.849 1.641-1.67 2.472-2.5 9.662-9.661 19.324-19.327 28.997-28.98 1.211-1.209 2.491-2.349 4.807-4.515Z" fill="#479CFC"/></svg>